<?xml version="1.0" encoding="utf-8"?>
<!-- Generator: Adobe Illustrator 16.0.0, SVG Export Plug-In . SVG Version: 6.00 Build 0)  -->
<!DOCTYPE svg PUBLIC "-//W3C//DTD SVG 1.1//EN" "http://www.w3.org/Graphics/SVG/1.1/DTD/svg11.dtd">
<svg version="1.1" id="Layer_1" xmlns="http://www.w3.org/2000/svg" xmlns:xlink="http://www.w3.org/1999/xlink" x="0px" y="0px"
	 width="900px" height="512px" viewBox="0 0 900 512" enable-background="new 0 0 900 512" xml:space="preserve" style=" width: 100%; height: 100%;">
<g>
	<path fill="#0052B4" d="M512,256c0,141.4-114.6,256-256,256C114.6,512,0,397.4,0,256C0,256.1,256,0,256,0
		C397.4,0,512,114.6,512,256z"/>
	<g>
		<path fill="#F0F0F0" d="M256,0L256,0L256,0L256,0z"/>
		<path fill="#F0F0F0" d="M255.3,256h0.7c0-0.2,0-0.5,0-0.7C255.8,255.5,255.5,255.8,255.3,256z"/>
		<path fill="#F0F0F0" d="M256,133.6c0-45,0-74.6,0-133.6l0,0C114.6,0,0,114.6,0,256h133.6v-75.2l75.2,75.2h46.5
			c0.2-0.2,0.5-0.5,0.7-0.7c0-17.2,0-32.6,0-46.5l-75.2-75.2H256L256,133.6z"/>
	</g>
	<g>
		<path fill="#D80027" d="M129.5,33.4c-40,22.8-73.3,56.1-96.1,96.1V256h66.8V100.2l0,0H256c0-21.1,0-41.1,0-66.8H129.5z"/>
		<path fill="#D80027" d="M256,224.5l-91-91h-31.5l0,0L256,256l0,0C256,256,256,234.3,256,224.5z"/>
	</g>
	<g>
		<polygon fill="#F0F0F0" points="154.4,300.5 168.4,329.9 200.2,322.6 186,351.9 211.5,372.1 179.7,379.3 179.8,411.8 154.4,391.5 
			129,411.8 129.1,379.3 97.3,372.1 122.8,351.9 108.6,322.6 140.3,329.9 		"/>
		<polygon fill="#F0F0F0" points="383.3,356.2 390.3,370.9 406.2,367.2 399.1,381.8 411.8,392 395.9,395.5 396,411.8 383.3,401.6 
			370.6,411.8 370.6,395.5 354.7,392 367.5,381.8 360.4,367.2 376.3,370.9 		"/>
		<polygon fill="#F0F0F0" points="317.9,200.3 325,215 340.8,211.4 333.7,226 346.5,236.1 330.6,239.7 330.6,256 317.9,245.8 
			305.2,256 305.3,239.7 289.4,236.1 302.1,226 295,211.4 310.9,215 		"/>
		<polygon fill="#F0F0F0" points="383.3,111.3 390.3,126 406.2,122.3 399.1,137 411.8,147.1 395.9,150.7 396,167 383.3,156.8 
			370.6,167 370.6,150.7 354.7,147.1 367.5,137 360.4,122.3 376.3,126 		"/>
		<polygon fill="#F0F0F0" points="440.4,178.1 447.4,192.8 463.3,189.1 456.2,203.8 468.9,213.9 453,217.5 453.1,233.7 440.4,223.6 
			427.7,233.7 427.7,217.5 411.8,213.9 424.6,203.8 417.5,189.1 433.3,192.8 		"/>
		<polygon fill="#F0F0F0" points="399.5,256 405.1,273 423,273 408.5,283.5 414,300.5 399.5,290 385.1,300.5 390.6,283.5 376.1,273 
			394,273 		"/>
	</g>
</g>
<circle fill="#F0F0F0" cx="644" cy="256.6" r="256"/>
<ellipse fill="#F0F0F0" cx="643.5" cy="256.35" rx="255.5" ry="255.65"/>
<g>
	<path fill="#D80027" d="M632.422,256.35H899c0-23.068-3.095-45.438-8.783-66.708H632.422V256.35z"/>
	<path fill="#D80027" d="M632.422,122.933h229.151c-15.669-25.564-35.631-48.134-58.983-66.708H632.422V122.933z"/>
	<path fill="#D80027" d="M643.5,512c60.082,0,115.373-20.772,159.09-55.623H484.41C528.127,491.228,583.418,512,643.5,512z"/>
	<path fill="#D80027" d="M425.526,389.767h436.047c12.574-20.472,22.257-42.939,28.744-66.709H396.783
		C403.17,346.827,412.951,369.195,425.526,389.767z"/>
</g>
<path fill="#0052B4" d="M506.369,40.646h23.254l-21.657,15.778l8.283,25.465L494.592,66.11l-21.658,15.779l7.186-21.97
	c-19.063,15.878-35.829,34.552-49.603,55.225h7.485l-13.773,9.986c-2.196,3.596-4.191,7.19-6.188,10.885l6.587,20.271l-12.276-8.887
	c-3.094,6.491-5.888,13.083-8.383,19.873l7.286,22.37h26.747l-21.657,15.778l8.284,25.465l-21.657-15.878l-12.975,9.387
	C388.699,234.879,388,245.465,388,256.25h255.5c0-141.208,0-157.885,0-255.65C592.999,0.7,545.991,15.379,506.369,40.646z
	 M516.249,230.784l-21.657-15.777l-21.658,15.777l8.283-25.464l-21.657-15.778h26.749l8.283-25.465l8.283,25.465h26.748
	l-21.657,15.778L516.249,230.784z M507.966,130.821l8.283,25.465l-21.657-15.777l-21.658,15.777l8.283-25.465l-21.657-15.778h26.749
	l8.283-25.465l8.283,25.465h26.748L507.966,130.821z M607.871,230.784l-21.659-15.777l-21.657,15.777l8.283-25.464l-21.658-15.778
	h26.749l8.283-25.465l8.283,25.465h26.748l-21.657,15.778L607.871,230.784z M599.586,130.821l8.285,25.465l-21.659-15.777
	l-21.657,15.777l8.283-25.465l-21.658-15.778h26.749l8.283-25.465l8.283,25.465h26.748L599.586,130.821z M599.586,56.324
	l8.285,25.465L586.212,66.01l-21.657,15.778l8.283-25.465L551.18,40.646h26.749l8.283-25.465l8.283,25.465h26.748L599.586,56.324z"
	/>
</svg>
