<?xml version="1.0" encoding="utf-8"?>
<!-- Generator: Adobe Illustrator 16.0.0, SVG Export Plug-In . SVG Version: 6.00 Build 0)  -->
<!DOCTYPE svg PUBLIC "-//W3C//DTD SVG 1.1//EN" "http://www.w3.org/Graphics/SVG/1.1/DTD/svg11.dtd">
<svg version="1.1" id="Layer_1" xmlns="http://www.w3.org/2000/svg" xmlns:xlink="http://www.w3.org/1999/xlink" x="0px" y="0px"
	 width="900px" height="512px" viewBox="0 0 900 512" enable-background="new 0 0 900 512" xml:space="preserve" style=" width: 100%; height: 100%;">
<g>
	<ellipse fill="#0052B4" cx="249.25" cy="256.5" rx="249.25" ry="255.5"/>
	<g>
		<polygon fill="#FFDA44" points="249.25,102.004 257.332,127.455 283.425,127.455 262.297,143.123 270.377,168.674 249.25,152.904 
			228.123,168.674 236.203,143.123 215.075,127.455 241.169,127.455 		"/>
		<polygon fill="#FFDA44" points="141.956,147.515 165.226,159.691 183.725,140.729 179.635,167.176 202.905,179.353 
			177.104,183.544 173.015,209.993 161.136,186.14 135.335,190.331 153.834,171.368 		"/>
		<polygon fill="#FFDA44" points="97.558,257.5 122.386,249.216 122.386,222.469 137.672,244.126 162.598,235.843 147.214,257.5 
			162.598,279.157 137.672,270.874 122.386,292.531 122.386,265.783 		"/>
		<polygon fill="#FFDA44" points="141.956,367.482 153.834,343.631 135.335,324.668 161.136,328.859 173.015,305.007 
			177.104,331.455 202.905,335.646 179.635,347.823 183.725,374.271 165.226,355.309 		"/>
		<polygon fill="#FFDA44" points="249.25,412.997 241.169,387.545 215.075,387.545 236.203,371.876 228.123,346.326 249.25,362.096 
			270.377,346.326 262.297,371.876 283.425,387.545 257.332,387.545 		"/>
		<polygon fill="#FFDA44" points="356.545,367.482 333.273,355.309 314.775,374.271 318.865,347.823 295.595,335.646 
			321.396,331.455 325.485,305.007 337.363,328.859 363.166,324.668 344.665,343.631 		"/>
		<polygon fill="#FFDA44" points="400.942,257.5 376.115,265.783 376.115,292.531 360.828,270.874 335.904,279.157 351.286,257.5 
			335.904,235.843 360.828,244.126 376.115,222.469 376.115,249.216 		"/>
		<polygon fill="#FFDA44" points="356.545,147.515 344.665,171.368 363.166,190.331 337.363,186.14 325.485,209.993 
			321.396,183.544 295.595,179.353 318.865,167.176 314.775,140.729 333.273,159.691 		"/>
	</g>
</g>
<g>
	<g>
		<path fill="#F0F0F0" d="M645,1L645,1L645,1L645,1z"/>
	</g>
	<g>
		<path fill="#D80027" d="M522.5,134.5L522.5,134.5"/>
	</g>
</g>
<circle fill="#F0F0F0" cx="644" cy="257" r="256"/>
<ellipse fill="#F0F0F0" cx="643.471" cy="255.884" rx="256.529" ry="254.785"/>
<g>
	<path fill="#D80027" d="M632.349,255.885H900c0-22.991-3.106-45.285-8.817-66.483H632.349V255.885z"/>
	<path fill="#D80027" d="M632.349,122.918h230.075c-15.732-25.479-35.774-47.971-59.222-66.483H632.349V122.918z"/>
	<path fill="#D80027" d="M643.471,510.669c60.324,0,115.839-20.702,159.731-55.435H483.74
		C527.634,489.967,583.147,510.669,643.471,510.669z"/>
	<path fill="#D80027" d="M424.621,388.85h437.803c12.623-20.402,22.346-42.795,28.859-66.482H395.761
		C402.174,346.055,411.994,368.348,424.621,388.85z"/>
</g>
<path fill="#0052B4" d="M505.787,40.91h23.349l-21.744,15.725l8.316,25.379l-21.744-15.726l-21.746,15.726l7.216-21.896
	c-19.141,15.825-35.976,34.436-49.803,55.038h7.517l-13.83,9.952c-2.205,3.583-4.208,7.166-6.212,10.849l6.614,20.204l-12.326-8.858
	c-3.105,6.469-5.912,13.038-8.417,19.805l7.315,22.294h26.856l-21.745,15.725l8.316,25.379l-21.744-15.825l-13.029,9.356
	c-1.301,10.45-2.003,20.999-2.003,31.748h256.528c0-140.729,0-157.35,0-254.785C592.767,1.099,545.571,15.729,505.787,40.91z
	 M515.708,230.406l-21.744-15.725l-21.746,15.725l8.317-25.379l-21.745-15.725h26.856l8.317-25.379l8.316,25.379h26.855
	l-21.744,15.725L515.708,230.406z M507.392,130.781l8.316,25.379l-21.744-15.725l-21.746,15.725l8.317-25.379l-21.745-15.725h26.856
	l8.317-25.379l8.316,25.379h26.855L507.392,130.781z M607.698,230.406l-21.746-15.725l-21.744,15.725l8.316-25.379l-21.744-15.725
	h26.856l8.315-25.379l8.316,25.379h26.857l-21.745,15.725L607.698,230.406z M599.381,130.781l8.317,25.379l-21.746-15.725
	l-21.744,15.725l8.316-25.379l-21.744-15.725h26.856l8.315-25.379l8.316,25.379h26.857L599.381,130.781z M599.381,56.535
	l8.317,25.378l-21.746-15.725l-21.744,15.725l8.316-25.378L550.78,40.91h26.856l8.315-25.379l8.316,25.379h26.857L599.381,56.535z"
	/>
</svg>
