<?xml version="1.0" encoding="utf-8"?>
<!-- Generator: Adobe Illustrator 16.0.0, SVG Export Plug-In . SVG Version: 6.00 Build 0)  -->
<!DOCTYPE svg PUBLIC "-//W3C//DTD SVG 1.1//EN" "http://www.w3.org/Graphics/SVG/1.1/DTD/svg11.dtd">
<svg version="1.1" id="Layer_1" xmlns="http://www.w3.org/2000/svg" xmlns:xlink="http://www.w3.org/1999/xlink" x="0px" y="0px"
	 width="900px" height="512px" viewBox="0 0 900 512" enable-background="new 0 0 900 512" xml:space="preserve" style=" width: 100%; height: 100%;">
<ellipse display="none" fill="#F0F0F0" cx="259.292" cy="257.996" rx="259.208" ry="257.996"/>
<g display="none">
	<g display="inline">
		<path fill="#F0F0F0" d="M259.292,1.008L259.292,1.008L259.292,1.008L259.292,1.008z"/>
	</g>
	<g display="inline">
		<path fill="#D80027" d="M135.256,135.549L135.256,135.549"/>
	</g>
</g>
<ellipse display="none" fill="#F0F0F0" cx="258.279" cy="259.004" rx="259.208" ry="257.996"/>
<circle display="none" fill="#F0F0F0" cx="644" cy="256" r="256"/>
<g display="none">
	<g display="inline">
		<path fill="#F0F0F0" d="M646,0L646,0L646,0L646,0z"/>
	</g>
	<g display="inline">
		<path fill="#D80027" d="M523.5,133.5L523.5,133.5"/>
	</g>
</g>
<ellipse fill="#F0F0F0" cx="256.595" cy="257" rx="256.595" ry="256"/>
<g>
	<g>
		<path fill="#F0F0F0" d="M643.25,2L643.25,2L643.25,2L643.25,2z"/>
	</g>
	<g>
		<path fill="#D80027" d="M518.616,135.5L518.616,135.5"/>
	</g>
</g>
<g>
	<g>
		<path fill="#F0F0F0" d="M646.5,2L646.5,2L646.5,2L646.5,2z"/>
	</g>
	<g>
		<path fill="#D80027" d="M523.715,135.5L523.715,135.5"/>
	</g>
</g>
<g>
	<ellipse fill="#F0F0F0" cx="256.595" cy="256.5" rx="256.595" ry="255.5"/>
	<g>
		<path fill="#0052B4" d="M53.023,100.904c-20.147,26.149-35.382,56.19-44.202,88.927h133.51L53.023,100.904z"/>
		<path fill="#0052B4" d="M504.369,189.832c-8.819-32.736-24.055-62.778-44.201-88.927l-89.307,88.927H504.369z"/>
		<path fill="#0052B4" d="M8.821,323.17c8.82,32.735,24.055,62.778,44.202,88.927l89.308-88.927H8.821L8.821,323.17z"/>
		<path fill="#0052B4" d="M412.857,53.797c-26.261-20.061-56.431-35.231-89.308-44.015v132.941L412.857,53.797z"/>
		<path fill="#0052B4" d="M100.333,459.205c26.26,20.061,56.431,35.23,89.307,44.013V370.278L100.333,459.205z"/>
		<path fill="#0052B4" d="M189.64,9.782c-32.875,8.784-63.046,23.954-89.307,44.015l89.307,88.927V9.782z"/>
		<path fill="#0052B4" d="M323.55,503.218c32.877-8.781,63.047-23.952,89.308-44.013l-89.308-88.927V503.218L323.55,503.218z"/>
		<path fill="#0052B4" d="M370.861,323.17l89.307,88.927c20.146-26.147,35.382-56.191,44.201-88.927H370.861z"/>
	</g>
	<g>
		<path fill="#D80027" d="M510.985,223.166H290.073l0,0V3.196C279.147,1.699,267.921,1,256.595,1
			c-11.326,0-22.552,0.699-33.478,2.196v219.97l0,0H2.205C0.802,234.044,0,245.223,0,256.5s0.702,22.457,2.205,33.336h220.913l0,0
			v219.97c10.926,1.397,22.152,2.195,33.478,2.195c11.326,0,22.552-0.699,33.478-2.195v-219.97l0,0h220.913
			c1.402-10.879,2.205-22.059,2.205-33.336C513.19,245.223,512.49,234.044,510.985,223.166z"/>
		<path fill="#D80027" d="M323.55,323.17L323.55,323.17l114.466,113.979c5.313-5.291,10.324-10.681,15.035-16.368l-98.025-97.609
			L323.55,323.17L323.55,323.17L323.55,323.17z"/>
		<path fill="#D80027" d="M189.64,323.17L189.64,323.17L75.174,437.147c5.313,5.288,10.726,10.279,16.438,14.972l98.027-97.609
			L189.64,323.17L189.64,323.17z"/>
		<path fill="#D80027" d="M189.64,189.832L189.64,189.832L75.174,75.854C69.862,81.143,64.85,86.533,60.14,92.222l98.026,97.609
			H189.64L189.64,189.832z"/>
		<path fill="#D80027" d="M323.55,189.832L323.55,189.832L438.016,75.854c-5.312-5.29-10.726-10.28-16.438-14.971l-98.027,97.61
			L323.55,189.832L323.55,189.832z"/>
	</g>
</g>
<circle fill="#F0F0F0" cx="646.5" cy="257" r="256"/>
<g>
	<g>
		<path fill="#F0F0F0" d="M645,2L645,2L645,2L645,2z"/>
	</g>
	<g>
		<path fill="#D80027" d="M522.5,135.5L522.5,135.5"/>
	</g>
</g>
<circle fill="#F0F0F0" cx="644" cy="258" r="256"/>
<ellipse fill="#F0F0F0" cx="643.471" cy="256.884" rx="256.529" ry="254.785"/>
<g>
	<path fill="#D80027" d="M632.349,256.885H900c0-22.991-3.106-45.285-8.817-66.483H632.349V256.885z"/>
	<path fill="#D80027" d="M632.349,123.918h230.075c-15.731-25.479-35.773-47.971-59.222-66.483H632.349V123.918z"/>
	<path fill="#D80027" d="M643.471,511.669c60.324,0,115.839-20.702,159.731-55.435H483.74
		C527.634,490.967,583.146,511.669,643.471,511.669z"/>
	<path fill="#D80027" d="M424.621,389.85h437.803c12.623-20.401,22.346-42.795,28.859-66.481H395.761
		C402.174,347.055,411.994,369.348,424.621,389.85z"/>
</g>
<path fill="#0052B4" d="M505.787,41.91h23.349l-21.744,15.725l8.316,25.379l-21.744-15.726l-21.746,15.726l7.216-21.896
	c-19.141,15.825-35.976,34.436-49.803,55.038h7.518l-13.83,9.952c-2.205,3.583-4.208,7.166-6.212,10.849l6.613,20.204l-12.325-8.858
	c-3.105,6.469-5.912,13.038-8.418,19.805l7.315,22.294h26.856l-21.745,15.725l8.315,25.379l-21.744-15.825l-13.028,9.356
	c-1.301,10.45-2.003,20.999-2.003,31.748h256.527c0-140.729,0-157.35,0-254.785C592.767,2.099,545.571,16.729,505.787,41.91z
	 M515.708,231.406l-21.744-15.725l-21.746,15.725l8.317-25.379l-21.745-15.725h26.856l8.316-25.379l8.316,25.379h26.854
	l-21.744,15.725L515.708,231.406z M507.392,131.781l8.316,25.379l-21.744-15.725l-21.746,15.725l8.317-25.379l-21.745-15.725h26.856
	l8.316-25.379l8.316,25.379h26.854L507.392,131.781z M607.698,231.406l-21.746-15.725l-21.744,15.725l8.316-25.379l-21.744-15.725
	h26.855l8.315-25.379l8.315,25.379h26.857l-21.745,15.725L607.698,231.406z M599.381,131.781l8.317,25.379l-21.746-15.725
	l-21.744,15.725l8.316-25.379l-21.744-15.725h26.855l8.315-25.379l8.315,25.379h26.857L599.381,131.781z M599.381,57.535
	l8.317,25.378l-21.746-15.725l-21.744,15.725l8.316-25.378L550.78,41.91h26.855l8.315-25.379l8.315,25.379h26.857L599.381,57.535z"
	/>
</svg>
