<?xml version="1.0" encoding="utf-8"?>
<!-- Generator: Adobe Illustrator 16.0.0, SVG Export Plug-In . SVG Version: 6.00 Build 0)  -->
<!DOCTYPE svg PUBLIC "-//W3C//DTD SVG 1.1//EN" "http://www.w3.org/Graphics/SVG/1.1/DTD/svg11.dtd">
<svg version="1.1" id="Layer_1" xmlns="http://www.w3.org/2000/svg" xmlns:xlink="http://www.w3.org/1999/xlink" x="0px" y="0px"
	 width="900px" height="512px" viewBox="0 0 900 512" enable-background="new 0 0 900 512" xml:space="preserve" style=" width: 100%; height: 100%;">
<ellipse display="none" fill="#F0F0F0" cx="259.292" cy="257.996" rx="259.208" ry="257.996"/>
<g display="none">
	<g display="inline">
		<path fill="#F0F0F0" d="M259.292,1.008L259.292,1.008L259.292,1.008L259.292,1.008z"/>
	</g>
	<g display="inline">
		<path fill="#D80027" d="M135.256,135.549L135.256,135.549"/>
	</g>
</g>
<ellipse display="none" fill="#F0F0F0" cx="258.279" cy="259.004" rx="259.208" ry="257.996"/>
<g>
	<path fill="#D80027" d="M246.482,257.88h271.005c0-23.17-3.146-45.638-8.929-67.001H246.482V257.88z"/>
	<path fill="#D80027" d="M246.482,123.876H479.44c-15.929-25.678-36.222-48.345-59.965-67.001H246.482V123.876z"/>
	<path fill="#D80027" d="M257.743,514.65c61.08,0,117.291-20.863,161.732-55.866H96.011
		C140.455,493.787,196.663,514.65,257.743,514.65z"/>
	<path fill="#D80027" d="M36.151,391.882h443.291c12.78-20.56,22.626-43.129,29.221-66.999H6.929
		C13.422,348.753,23.366,371.221,36.151,391.882z"/>
</g>
<path fill="#0052B4" d="M120.333,41.229h23.642l-22.017,15.847l8.42,25.578l-22.017-15.849L86.343,82.654l7.306-22.067
	c-19.38,15.948-36.426,34.705-50.427,55.467h7.613l-14.003,10.029c-2.233,3.611-4.261,7.222-6.29,10.934l6.695,20.362l-12.479-8.928
	c-3.144,6.52-5.985,13.14-8.523,19.96l7.407,22.468h27.193l-22.018,15.848l8.419,25.577l-22.017-15.948l-13.191,9.429
	C0.711,236.315,0,246.947,0,257.779h259.741c0-141.826,0-158.577,0-256.771C208.403,1.108,160.616,15.852,120.333,41.229z
	 M130.378,232.203l-22.017-15.848l-22.019,15.848l8.421-25.577l-22.018-15.848H99.94l8.42-25.577l8.42,25.577h27.19l-22.017,15.848
	L130.378,232.203z M121.958,131.801l8.42,25.577l-22.017-15.848l-22.019,15.848l8.421-25.577l-22.018-15.848H99.94l8.42-25.577
	l8.42,25.577h27.19L121.958,131.801z M223.521,232.203l-22.019-15.848l-22.017,15.848l8.42-25.577l-22.017-15.848h27.191
	l8.42-25.577l8.418,25.577h27.194l-22.018,15.848L223.521,232.203z M215.1,131.801l8.421,25.577l-22.019-15.848l-22.017,15.848
	l8.42-25.577l-22.017-15.848h27.191l8.42-25.577l8.418,25.577h27.194L215.1,131.801z M215.1,56.976l8.421,25.576l-22.019-15.848
	l-22.017,15.848l8.42-25.576L165.89,41.229h27.191l8.42-25.577l8.418,25.577h27.194L215.1,56.976z"/>
<ellipse fill="#F0F0F0" cx="640.754" cy="256.996" rx="259.246" ry="255.996"/>
<path fill="#D80027" d="M618.211,256.996c0,0-160.62,181.053-160.771,181.017c46.912,46.326,111.725,74.979,183.314,74.979
	C783.931,512.992,900,398.379,900,256.996H618.211z"/>
<path fill="#0052B4" d="M457.439,75.979c-101.242,99.973-101.242,262.061,0,362.035c41.836-41.313,82.073-81.045,183.314-181.018
	L457.439,75.979z"/>
</svg>
